<?xml version="1.0" encoding="utf-8"?>
<!-- Generator: Adobe Illustrator 17.1.0, SVG Export Plug-In . SVG Version: 6.00 Build 0)  -->
<!DOCTYPE svg PUBLIC "-//W3C//DTD SVG 1.1//EN" "http://www.w3.org/Graphics/SVG/1.1/DTD/svg11.dtd">
<svg version="1.1" id="Layer_1" xmlns="http://www.w3.org/2000/svg" xmlns:xlink="http://www.w3.org/1999/xlink" x="0px" y="0px"
	 width="792px" height="612px" viewBox="0 0 792 612" enable-background="new 0 0 792 612" xml:space="preserve">
<g id="Layer_2" display="none">
	<circle display="inline" fill="#B02024" cx="399.3" cy="311.3" r="290.1"/>
	<circle display="inline" fill="#E61E25" cx="380.8" cy="360.3" r="9.3"/>
	<path display="inline" fill="#FFFFFF" d="M417.9,414.6H394c-6.6,0-18.5,0-25.2,0h-35.8c-6.6,0-10.6-4-7.9-10.6l18.5-29.1h-78.2
		c-14.6,0-18.5-7.9-18.5-21.2V176.2c0-14.6,5.3-26.5,18.5-26.5h231.8c14.6,0,27.8,11.9,27.8,26.5v106h-13.2v-106
		c0-6.6-6.6-13.2-14.6-13.2H264.2c-6.6,0-5.3,6.6-5.3,13.2v148.4c0,6.6-1.3,10.6,5.3,10.6h153.7V414.6z"/>
	<rect x="272.1" y="189.4" display="inline" fill="#FFFFFF" width="225.2" height="26.5"/>
	<rect x="391.4" y="229.2" display="inline" fill="#FFFFFF" width="106" height="53"/>
	<rect x="272.1" y="229.2" display="inline" fill="#FFFFFF" width="106" height="53"/>
	<path display="inline" fill="#FFFFFF" d="M563.6,455.7c0,14.6-11.9,25.2-25.2,25.2h-80.8c-14.6,0-25.2-11.9-25.2-25.2V320.6
		c0-14.6,11.9-25.2,25.2-25.2h80.8c14.6,0,25.2,11.9,25.2,25.2V455.7z M550.3,315.3c0-4-2.6-6.6-6.6-6.6H451c-4,0-6.6,2.6-6.6,6.6
		v132.5c0,4,2.6,6.6,6.6,6.6h92.7c4,0,6.6-2.6,6.6-6.6V315.3z M537.1,348.4h-79.5v-26.5h79.5V348.4z M537.1,388.1h-79.5v-26.5h79.5
		V388.1z M537.1,427.9h-79.5v-26.5h79.5V427.9z"/>
</g>
<g id="Layer_5" display="none">
	<path display="inline" fill="#B02024" d="M399.3,9.3c-162.9,0-294.1,132.5-294.1,294.1c0,162.9,132.5,294.1,294.1,294.1
		c162.9,0,294.1-132.5,294.1-294.1S562.2,9.3,399.3,9.3z M339.7,398.7h-71.5v35.8h-1.3l-31.8-49l31.8-49h1.3v35.8h46.4v-98H341
		v124.5H339.7z M448.3,435.8l-49,31.8l-49-31.8v-1.3h35.8V274.2h26.5v160.3L448.3,435.8L448.3,435.8z M530.5,434.5L530.5,434.5
		l-1.3-35.8h-71.5V274.2h26.5v98h46.4v-35.8h1.3l31.8,49L530.5,434.5z M510.6,320.6h-13.2v-58.3h-53v58.3h-19.9v-58.3h-53v58.3
		h-19.9v-58.3h-53v58.3h-15.9l0,0c-27.8-1.3-49-23.8-49-51.7c0-29.1,23.8-53,53-53c4,0,9.3,0,13.2,1.3c0-1.3,0-4,0-5.3
		c0-29.1,23.8-53,53-53c13.2,0,26.5,5.3,35.8,14.6c14.6-19.9,37.1-33.1,64.9-33.1c43.7,0,78.2,35.8,78.2,78.2v1.3
		c18.5,7.9,30.5,26.5,30.5,47.7C562.2,296.7,539.7,320.6,510.6,320.6z"/>
</g>
<g id="Layer_6" display="none">
	<circle display="inline" fill="#B02024" cx="402" cy="303.4" r="290.1"/>
	<polygon display="inline" fill="#FFFFFF" points="359.6,278.2 447,278.2 478.8,406.7 327.8,406.7 	"/>
	<rect x="342.4" y="169.6" display="inline" fill="#FFFFFF" width="121.9" height="79.5"/>
	<path display="inline" fill="#FFFFFF" stroke="#B02024" stroke-width="0.5097" stroke-miterlimit="10" d="M345,299.4l-5.3-1.3
		c-2.6-1.3-5.3-4-9.3-7.9l0,0l0,0c0-1.3,0-1.3,0-1.3s0,0,0-1.3c1.3-1.3,1.3-2.6,1.3-4c0-1.3,1.3-1.3,1.3-2.6
		c2.6-2.6,5.3-5.3,5.3-9.3c1.3-4,0-6.6-1.3-7.9l0,0c0-4,0-7.9-1.3-11.9c0-4-1.3-7.9-2.6-9.3s-4-2.6-5.3-2.6h-1.3
		c-2.6-1.3-5.3-2.6-9.3-2.6c0,0,0,0-1.3,0l0,0l0,0c-7.9,0-15.9,6.6-18.5,14.6c-1.3,2.6-1.3,6.6-1.3,10.6v1.3l0,0
		c0,1.3-1.3,2.6-1.3,7.9c1.3,4,4,6.6,5.3,9.3c0,0,0,1.3,1.3,2.6c0,1.3,1.3,2.6,1.3,4l0,0c0,0,0,0,0,1.3l0,0c-4,4-7.9,6.6-9.3,7.9
		l-2.6,1.3c-5.3,4-9.3,6.6-11.9,6.6c-6.6,4-9.3,6.6-9.3,9.3v7.9c0,1.3,1.3,2.6,2.6,4c0,0,43.7,6.6,63.6,7.9"/>
	<path display="inline" fill="#010101" d="M355.6,324.5"/>
	<path display="inline" fill="#FFFFFF" stroke="#B02024" stroke-width="0.5097" stroke-miterlimit="10" d="M461.6,299.4l5.3-1.3
		c2.6-1.3,5.3-4,9.3-7.9l0,0l0,0c0-1.3,0-1.3,0-1.3s0,0,0-1.3c-1.3-1.3-1.3-2.6-1.3-4c0-1.3-1.3-1.3-1.3-2.6
		c-2.6-2.6-5.3-5.3-5.3-9.3c-1.3-4,0-6.6,1.3-7.9l0,0c0-4,0-7.9,1.3-11.9c0-4,1.3-7.9,2.6-9.3s4-2.6,5.3-2.6h1.3
		c2.6-1.3,5.3-2.6,9.3-2.6c0,0,0,0,1.3,0l0,0l0,0c7.9,0,15.9,6.6,18.5,14.6c1.3,2.6,1.3,6.6,1.3,10.6v1.3l0,0c0,1.3,1.3,2.6,1.3,7.9
		c-1.3,4-4,6.6-5.3,9.3c0,0,0,1.3-1.3,2.6c0,1.3-1.3,2.6-1.3,4l0,0c0,0,0,0,0,1.3l0,0c4,4,7.9,6.6,9.3,7.9l2.6,1.3
		c6.6,2.6,10.6,5.3,11.9,5.3c6.6,4,9.3,6.6,9.3,9.3v7.9c0,1.3-1.3,2.6-2.6,4c0,0-43.7,6.6-63.6,7.9"/>
	<path display="inline" fill="#FFFFFF" stroke="#B02024" stroke-width="0.5097" stroke-miterlimit="10" d="M327.8,370.9
		c-2.6-1.3-13.2-7.9-19.9-10.6l-5.3-2.6c-2.6-1.3-7.9-5.3-13.2-10.6l0,0c0,0,0,0,0-1.3c0-1.3,0-1.3,0-1.3s0,0,0-1.3
		c1.3-1.3,1.3-4,2.6-5.3c0-1.3,1.3-2.6,1.3-2.6c2.6-4,6.6-7.9,7.9-13.2c1.3-5.3,0-7.9-1.3-9.3l0,0c0-5.3,0-10.6-1.3-15.9
		c0-6.6-1.3-10.6-4-13.2c-2.6-2.6-5.3-2.6-7.9-4c-1.3,0-1.3,0-2.6,0c-4-2.6-7.9-4-11.9-4h-1.3l0,0c0,0,0,0-1.3,0
		c-11.9,1.3-22.5,7.9-25.2,19.9c-1.3,4-1.3,9.3-1.3,14.6c0,1.3,0,1.3,0,2.6l0,0c-1.3,1.3-2.6,4-1.3,9.3c1.3,5.3,4,9.3,7.9,13.2
		c0,0,1.3,1.3,1.3,2.6c0,1.3,1.3,4,2.6,5.3c0,0,0,0,0,1.3s0,1.3,0,2.6l0,0c-5.3,5.3-9.3,9.3-13.2,10.6l-4,2.6
		c-7.9,4-14.6,6.6-17.2,7.9c-9.3,5.3-11.9,7.9-11.9,11.9v11.9c0,2.6,1.3,4,2.6,5.3c1.3,0,66.2,5.3,106,10.6"/>
	<path display="inline" fill="#FFFFFF" stroke="#B02024" stroke-width="0.5097" stroke-miterlimit="10" d="M478.8,370.9
		c2.6-1.3,13.2-7.9,19.9-10.6l4-1.3c2.6-1.3,7.9-5.3,13.2-10.6l0,0c0,0,0,0,0-1.3s0-1.3,0-1.3s0,0,0-1.3c-1.3-1.3-1.3-4-2.6-5.3
		c0-1.3-1.3-2.6-1.3-2.6c-2.6-4-6.6-7.9-7.9-13.2s0-7.9,1.3-9.3l0,0c0-5.3,0-10.6,1.3-15.9c0-6.6,1.3-10.6,4-13.2
		c2.6-2.6,5.3-2.6,7.9-4c1.3,0,1.3,0,2.6,0c4-2.6,7.9-4,11.9-4h1.3l0,0c0,0,0,0,1.3,0c11.9,1.3,22.5,7.9,25.2,19.9
		c1.3,4,1.3,9.3,1.3,14.6c0,1.3,0,1.3,0,2.6l0,0c1.3,1.3,2.6,4,1.3,9.3c-1.3,5.3-4,9.3-7.9,13.2c0,0-1.3,1.3-1.3,2.6
		c0,1.3-1.3,4-2.6,5.3c0,0,0,0,0,1.3c0,1.3,0,1.3,0,2.6l0,0c5.3,5.3,9.3,9.3,13.2,10.6l4,2.6c7.9,4,14.6,6.6,17.2,7.9
		c9.3,5.3,11.9,7.9,11.9,11.9v11.9c0,2.6-1.3,4-2.6,5.3c-1.3,0-66.2,5.3-106,10.6"/>
	<path display="inline" fill="#B02024" d="M425.8,221.2c-1.3,0-4-2.6-6.6-4l-1.3-1.3c-1.3,0-4-2.6-5.3-4l0,0l0,0c0,0,0,0,0-1.3l0,0
		c0-1.3,1.3-1.3,1.3-2.6v-1.3c1.3-1.3,2.6-2.6,2.6-5.3s0-4,0-4l0,0c0-2.6,0-5.3,0-6.6c0-2.6,0-4-1.3-5.3s-2.6-1.3-2.6-1.3h-1.3
		c-1.3-1.3-2.6-1.3-5.3-1.3l0,0l0,0l0,0c-5.3,0-9.3,4-10.6,7.9c0,1.3,0,4,0,6.6c0,0,0,0,0,1.3l0,0c0,0-1.3,1.3,0,4
		c0,2.6,1.3,4,2.6,5.3v1.3c0,1.3,0,1.3,1.3,2.6l0,0c0,0,0,0,0,1.3l0,0c-2.6,2.6-4,4-5.3,4l-1.3,1.3c-4,1.3-6.6,2.6-6.6,4
		c-4,2.6-5.3,4-5.3,5.3v5.3c0,1.3,0,1.3,1.3,1.3c0,0,9.3,4,26.5,4s25.2-4,26.5-4s1.3-1.3,1.3-1.3v-5.3
		C429.8,223.9,428.5,222.5,425.8,221.2z"/>
</g>
<circle fill="#B02024" cx="402" cy="306" r="294.1"/>
<g id="Layer_1_1_" display="none">
	<g display="inline">
		<circle fill="none" stroke="#C1C0C0" stroke-width="2" stroke-miterlimit="10" cx="404.6" cy="304.7" r="569.6"/>
		<path fill="#C1C0C0" d="M592.7,194.7l13.2-22.5c26.5,15.9,42.4,43.7,42.4,74.2c0,30.5-15.9,59.6-42.4,74.2l-13.2-22.5
			c18.5-10.6,30.5-30.5,30.5-53C621.9,226.5,611.3,205.3,592.7,194.7z"/>
		<path fill="#C1C0C0" d="M205.9,217.2c0-6.6,5.3-11.9,11.9-14.6c-21.2-68.9,5.3-141.7,63.6-182.8c29.1-19.9,62.3-31.8,96.7-31.8
			S447-1.3,474.8,19.9c58.3,41.1,76.8,115.2,57,182.8c6.6,1.3,5.3,6.6,5.3,14.6v58.3c0,5.3,0,10.6,0,13.2v60.9h-1.3h-7.9h-18.5
			v-26.5h13.2v-34.4c0-2.6-13.2-7.9-13.2-13.2v-58.3c0-6.6,9.3-11.9,15.9-14.6l2.6-1.3c10.6-60.9-15.9-121.9-67.6-155
			c-25.2-15.9-54.3-25.2-84.8-25.2s-59.6,9.3-84.8,25.2c-49,33.1-75.5,94.1-66.2,153.7v1.3h-1.3c6.6,1.3,9.3,6.6,9.3,14.6v58.3
			c0,7.9-5.3,14.6-13.2,14.6s-13.2-6.6-13.2-14.6L205.9,217.2L205.9,217.2z"/>
		<path fill="#C1C0C0" d="M669.5,561.7c0,9.3-5.3,17.2-13.2,21.2c-4,1.3-94.1,38.4-278.2,38.4s-274.2-37.1-278.2-38.4
			c-7.9-4-14.6-11.9-14.6-21.2v-53c0-18.5,15.9-33.1,55.6-55.6c9.3-5.3,38.4-18.5,76.8-35.8l19.9-9.3c14.6-6.6,37.1-23.8,59.6-47.7
			V359c0-7.9,0-7.9,0-10.6c0-1.3,0-1.3,0-2.6c-5.3-7.9-7.9-15.9-10.6-23.8c-1.3-4-4-11.9-5.3-13.2c-14.6-14.6-30.5-34.4-35.8-59.6
			c-5.3-25.2,1.3-38.4,5.3-45l0,0c0-2.6,0-6.6,0-9.3c0-26.5,0-50.3,5.3-66.2c17.2-50.3,64.9-86.1,117.9-90.1c1.3,0,2.6,0,4,0h2.6
			c1.3,0,2.6,0,5.3,0c19.9,1.3,35.8,5.3,54.3,15.9c1.3,1.3,6.6,1.3,9.3,2.6c10.6,1.3,23.8,4,34.4,15.9
			c13.2,14.6,18.5,31.8,18.5,59.6c5.3,19.9,5.3,45,5.3,70.2l0,0c4,6.6,9.3,19.9,5.3,45c-5.3,25.2-21.2,43.7-35.8,59.6
			c-1.3,1.3-4,7.9-5.3,13.2c-2.6,7.9-5.3,15.9-10.6,23.8c0,1.3,0,2.6-1.3,4c0,2.6,0,2.6,0,9.3c0,2.6,0,4,0,4s0,0,1.3,0
			c22.5,22.5,45,39.7,59.6,46.4l19.9,9.3c31.8,14.6,66.2,30.5,76.8,35.8c39.7,22.5,54.3,37.1,54.3,55.6v53H669.5z"/>
		<path fill="#C1C0C0" d="M641.7,385.5L628.5,363c41.1-23.8,66.2-67.6,66.2-115.2s-25.2-91.4-66.2-115.2l13.2-22.5
			c49,27.8,79.5,80.8,79.5,137.8C721.2,303.4,690.7,356.3,641.7,385.5z"/>
	</g>
</g>
<g id="Layer_3" display="none">
	<g display="inline">
		<circle fill="none" stroke="#C1C0C0" stroke-width="2" stroke-miterlimit="10" cx="399.3" cy="311.3" r="572.3"/>
		<path fill="#C1C0C0" d="M722.5,306c0-27.8-22.5-50.3-50.3-50.3H494.7c-27.8,0-50.3,22.5-50.3,50.3v268.9
			c0,27.8,22.5,50.3,50.3,50.3h176.2c27.8,0,50.3-22.5,50.3-50.3V306H722.5z M590.1,606.7c0,6.6-5.3,13.2-13.2,13.2
			c-6.6,0-13.2-5.3-13.2-13.2c0-7.9,5.3-13.2,13.2-13.2S590.1,598.8,590.1,606.7z M696,560.3c0,6.6-5.3,13.2-13.2,13.2H484.1
			c-6.6,0-13.2-5.3-13.2-13.2V295.4c0-6.6,5.3-13.2,13.2-13.2h200c6.6,0,13.2,5.3,13.2,13.2v264.9H696z M669.5,494.1H497.3v66.2
			h172.2V494.1z M669.5,401.4H497.3v66.2h172.2V401.4z M669.5,308.6H497.3v66.2h172.2V308.6z"/>
		<circle fill="#C1C0C0" cx="362.2" cy="406.7" r="18.5"/>
		<path fill="#C1C0C0" d="M417.9,361.6H133.1c-14.6,0-19.9-10.6-19.9-25.2V45c0-14.6,5.3-26.5,19.9-26.5h458.3
			c14.6,0,26.5,13.2,26.5,26.5v185.5h26.5V45c0-27.8-23.8-53-53-53H133.1c-27.8,0-46.4,25.2-46.4,53v349.7
			c0,27.8,18.5,46.4,46.4,46.4h153.7l-37.1,57c-5.3,13.2,2.6,22.5,17.2,22.5h70.2c14.6,0,37.1,0,50.3,0h30.5V361.6z"/>
		<rect x="152.9" y="57" fill="#C1C0C0" width="423.9" height="79.5"/>
		<rect x="391.4" y="149.7" fill="#C1C0C0" width="185.5" height="79.5"/>
		<rect x="152.9" y="149.7" fill="#C1C0C0" width="198.7" height="79.5"/>
	</g>
</g>
<g id="Layer_4" display="none">
	<g display="inline">
		<circle fill="none" stroke="#C1C0C0" stroke-width="2" stroke-miterlimit="10" cx="399.3" cy="311.3" r="568.3"/>
		<polygon fill="#C1C0C0" points="317.2,262.3 488.1,262.3 550.3,512.6 253.6,512.6 		"/>
		<rect x="284.1" y="50.3" fill="#C1C0C0" width="237.1" height="155"/>
		<path fill="#C1C0C0" stroke="#FFFFFF" stroke-width="0.5" stroke-miterlimit="10" d="M289.4,302l-9.3-2.6
			c-4-2.6-11.9-7.9-18.5-14.6l0,0c0,0,0,0,0-1.3c0-2.6,0-2.6,0-2.6v-1.3c1.3-2.6,2.6-5.3,4-7.9c0-1.3,1.3-4,1.3-4
			c5.3-5.3,9.3-10.6,11.9-18.5c1.3-7.9,0-11.9-1.3-14.6l0,0c0-7.9,0-15.9-1.3-22.5c0-9.3-1.3-14.6-6.6-18.5c-2.6-4-7.9-4-10.6-5.3
			c-1.3,0-2.6,0-2.6-1.3c-5.3-4-10.6-5.3-17.2-5.3h-1.3h-1.3h-1.3c-17.2,1.3-31.8,11.9-37.1,27.8c-1.3,5.3-1.3,11.9-1.3,21.2
			c0,1.3,0,2.6,0,2.6l0,0c-1.3,2.6-2.6,6.6-1.3,14.6c1.3,7.9,6.6,14.6,10.6,18.5c0,0,1.3,2.6,1.3,4c1.3,2.6,1.3,5.3,4,7.9v1.3
			c0,1.3,0,1.3,0,4l0,0c-6.6,7.9-14.6,13.2-18.5,14.6l-6.6,2.6c-11.9,5.3-21.2,9.3-23.8,11.9c-13.2,6.6-17.2,11.9-17.2,17.2v17.2
			c0,2.6,1.3,5.3,4,6.6c1.3,0,87.4,13.2,124.5,15.9"/>
		<path fill="#010101" d="M309.2,352.4"/>
		<path fill="#C1C0C0" stroke="#FFFFFF" stroke-width="0.5" stroke-miterlimit="10" d="M515.9,302l9.3-2.6c4-2.6,11.9-7.9,18.5-14.6
			l0,0c0,0,0,0,0-1.3c0-2.6,0-2.6,0-2.6v-1.3c-1.3-2.6-2.6-5.3-4-7.9c0-1.3-1.3-4-1.3-4c-5.3-5.3-9.3-10.6-11.9-18.5
			c-1.3-7.9,0-11.9,1.3-14.6l0,0c0-7.9,0-15.9,1.3-22.5c0-9.3,1.3-14.6,6.6-18.5c2.6-4,7.9-4,10.6-5.3c1.3,0,2.6,0,2.6-1.3
			c5.3-4,10.6-5.3,17.2-5.3h1.3h1.3h1.3c17.2,1.3,31.8,11.9,37.1,27.8c1.3,5.3,1.3,11.9,1.3,21.2c0,1.3,0,2.6,0,2.6l0,0
			c1.3,2.6,2.6,6.6,1.3,14.6c-1.3,7.9-6.6,14.6-10.6,18.5c0,0-1.3,2.6-1.3,4c-1.3,2.6-1.3,5.3-4,7.9v1.3c0,1.3,0,1.3,0,4l0,0
			c6.6,7.9,14.6,13.2,18.5,14.6l6.6,2.6c11.9,5.3,21.2,9.3,23.8,11.9c13.2,6.6,17.2,11.9,17.2,17.2v17.2c0,2.6-1.3,5.3-4,6.6
			c-1.3,0-87.4,13.2-124.5,15.9"/>
		<path fill="#C1C0C0" stroke="#FFFFFF" stroke-width="0.5" stroke-miterlimit="10" d="M253.6,442.4c-4-2.6-26.5-14.6-39.7-21.2
			l-7.9-4c-6.6-2.6-15.9-10.6-25.2-19.9l0,0c0,0,0,0,0-1.3c0-2.6,0-2.6,0-4v-1.3c2.6-2.6,4-6.6,4-10.6c1.3-1.3,1.3-5.3,2.6-5.3
			c6.6-6.6,13.2-14.6,14.6-25.2c2.6-10.6,0-15.9-2.6-19.9l0,0c0-10.6,0-21.2-2.6-30.5c0-11.9-2.6-19.9-7.9-25.2
			c-4-5.3-10.6-5.3-14.6-6.6c-1.3,0-4,0-4-1.3c-7.9-4-14.6-6.6-22.5-6.6c-1.3,0-1.3,0-2.6,0h-1.3h-1.3
			c-22.5,1.3-42.4,17.2-50.3,38.4c-2.6,6.6-2.6,17.2-2.6,27.8c0,1.3,0,2.6,0,4l0,0c-1.3,2.6-4,7.9-2.6,19.9
			c2.6,10.6,9.3,18.5,14.6,25.2c0,1.3,1.3,4,2.6,5.3c5.3,4,6.6,7.9,7.9,10.6v1.3c0,1.3,0,1.3,0,5.3l0,0
			c-9.3,9.3-19.9,17.2-25.2,19.9l-9.3,4c-17.2,7.9-29.1,13.2-33.1,15.9C27.1,446.4,20.5,453,20.5,461v22.5c0,4,2.6,7.9,5.3,9.3
			c1.3,1.3,129.8,9.3,208,21.2"/>
		<path fill="#C1C0C0" stroke="#FFFFFF" stroke-width="0.5" stroke-miterlimit="10" d="M549,442.4c4-2.6,26.5-14.6,39.7-21.2l7.9-4
			c6.6-2.6,15.9-10.6,25.2-19.9l0,0c0,0,0,0,0-1.3c0-2.6,0-2.6,0-4v-1.3c-2.6-2.6-4-6.6-4-10.6c-1.3-1.3-1.3-5.3-2.6-5.3
			c-6.6-6.6-13.2-14.6-14.6-25.2c-2.6-10.6,0-15.9,2.6-19.9l0,0c0-10.6,0-21.2,2.6-30.5c0-11.9,2.6-19.9,7.9-25.2
			c4-5.3,10.6-5.3,14.6-6.6c1.3,0,4,0,4-1.3c7.9-4,14.6-6.6,22.5-6.6c1.3,0,1.3,0,2.6,0h1.3h1.3c22.5,1.3,42.4,17.2,50.3,38.4
			c2.6,6.6,2.6,17.2,2.6,27.8c0,1.3,0,2.6,0,4l0,0c1.3,2.6,4,7.9,2.6,19.9c-2.6,10.6-9.3,18.5-14.6,25.2c0,1.3-1.3,4-2.6,5.3
			c-1.3,4-2.6,6.6-5.3,10.6v1.3c0,1.3,0,1.3,0,5.3l0,0c9.3,9.3,19.9,17.2,25.2,19.9l9.3,4c17.2,7.9,29.1,13.2,33.1,15.9
			c17.2,9.3,23.8,15.9,23.8,23.8v22.5c0,4-2.6,7.9-5.3,9.3c-1.3,1.3-129.8,9.3-208,21.2"/>
		<path fill="#FFFFFF" d="M445.7,151c-1.3-1.3-7.9-4-14.6-6.6l-4-1.3c-2.6-1.3-6.6-4-10.6-7.9l0,0c0,0,0,0,0-1.3c0-1.3,0-1.3,0-1.3
			s0,0,0-1.3c1.3-1.3,1.3-2.6,1.3-4s1.3-2.6,1.3-2.6c2.6-2.6,5.3-6.6,6.6-10.6s0-6.6-1.3-7.9l0,0c0-4,0-9.3-1.3-13.2
			c0-5.3-1.3-7.9-4-10.6c-1.3-2.6-4-2.6-6.6-2.6h-1.3c-2.6-1.3-6.6-2.6-9.3-2.6h-1.3l0,0c0,0,0,0-1.3,0c-9.3,0-18.5,6.6-21.2,15.9
			c-1.3,2.6-1.3,6.6-1.3,11.9v1.3l0,0c0,1.3-1.3,4-1.3,7.9c1.3,4,4,7.9,6.6,10.6c0,0,1.3,1.3,1.3,2.6c0,1.3,1.3,2.6,2.6,4l0,0
			c0,0,0,0,0,2.6l0,0c-4,4-7.9,7.9-10.6,9.3l-4,1.3c-6.6,2.6-11.9,5.3-14.6,6.6c-7.9,4-10.6,6.6-10.6,10.6v9.3c0,1.3,1.3,2.6,2.6,4
			c1.3,0,17.2,6.6,50.3,6.6s50.3-6.6,50.3-6.6c1.3,0,2.6-2.6,2.6-4v-9.3C454.9,157.6,452.3,155,445.7,151z"/>
	</g>
</g>
<polygon fill="#FFFFFF" points="340.7,401.7 269.2,401.7 269.2,437.5 267.8,437.5 236.1,388.5 267.8,339.5 269.2,339.5 269.2,375.2 
	315.5,375.2 315.5,277.2 342,277.2 342,401.7 "/>
<polygon fill="#FFFFFF" points="450.3,438.8 401.3,470.6 352.3,438.8 352.3,437.5 388.1,437.5 388.1,277.2 414.6,277.2 414.6,437.5 
	450.3,438.8 "/>
<polygon fill="#FFFFFF" points="533.5,437.5 533.5,437.5 532.1,401.7 460.6,401.7 460.6,277.2 487.1,277.2 487.1,375.2 533.5,375.2 
	533.5,339.5 534.8,339.5 566.6,388.5 "/>
<path fill="#FFFFFF" d="M513.6,323.6h-13.2v-58.3h-53v58.3h-19.9v-58.3h-53v58.3h-19.9v-58.3h-53v58.3h-15.9l0,0
	c-27.8-1.3-49-23.8-49-51.7c0-29.1,23.8-53,53-53c4,0,9.3,0,13.2,1.3c0-1.3,0-4,0-5.3c0-29.1,23.8-53,53-53
	c13.2,0,26.5,5.3,35.8,14.6c14.6-19.9,37.1-33.1,64.9-33.1c43.7,0,78.2,35.8,78.2,78.2v1.3c18.5,7.9,30.5,26.5,30.5,47.7
	C565.2,299.7,542.7,323.6,513.6,323.6z"/>
</svg>
